<svg version="1.1" viewBox="0.0 0.0 919.7007874015748 325.9711286089239" fill="none" stroke="none" stroke-linecap="square" stroke-miterlimit="10" xmlns:xlink="http://www.w3.org/1999/xlink" xmlns="http://www.w3.org/2000/svg"><clipPath id="p.0"><path d="m0 0l919.7008 0l0 325.97113l-919.7008 0l0 -325.97113z" clip-rule="nonzero"/></clipPath><g clip-path="url(#p.0)"><path fill="#000000" fill-opacity="0.0" d="m0 0l919.7008 0l0 325.97113l-919.7008 0z" fill-rule="evenodd"/><g filter="url(#shadowFilter-p.1)"><use xlink:href="#p.1" transform="matrix(1.0 0.0 0.0 1.0 3.535533858267715 3.5355338582677103)"/></g><defs><filter id="shadowFilter-p.1" filterUnits="userSpaceOnUse"><feGaussianBlur in="SourceAlpha" stdDeviation="0.0" result="blur"/><feComponentTransfer in="blur" color-interpolation-filters="sRGB"><feFuncR type="linear" slope="0" intercept="0.0"/><feFuncG type="linear" slope="0" intercept="0.0"/><feFuncB type="linear" slope="0" intercept="0.0"/><feFuncA type="linear" slope="0.5" intercept="0"/></feComponentTransfer></filter></defs><g id="p.1"><path fill="#efefef" d="m29.535433 75.437004l313.85828 0l0 72.94489l-313.85828 0z" fill-rule="evenodd"/></g><path fill="#000000" fill-opacity="0.0" d="m265.8504 275.7895l77.543304 -46.204712" fill-rule="evenodd"/><path stroke="#f9cb9c" stroke-width="16.0" stroke-linejoin="round" stroke-linecap="butt" d="m265.8504 275.7895l77.543304 -46.204712" fill-rule="evenodd"/><path fill="#000000" fill-opacity="0.0" d="m63.72441 167.32545l71.68504 63.622055" fill-rule="evenodd"/><path stroke="#f9cb9c" stroke-width="16.0" stroke-linejoin="round" stroke-linecap="butt" d="m63.72441 167.32545l71.68504 63.622055" fill-rule="evenodd"/><path fill="#000000" fill-opacity="0.0" d="m389.6273 229.58478l78.58267 -63.433075" fill-rule="evenodd"/><path stroke="#f9cb9c" stroke-width="16.0" stroke-linejoin="round" stroke-linecap="butt" d="m389.6273 229.58478l78.58267 -63.433075" fill-rule="evenodd"/><path fill="#000000" fill-opacity="0.0" d="m11.64042 229.99686l510.99216 0" fill-rule="evenodd"/><path stroke="#e69138" stroke-width="16.0" stroke-linejoin="round" stroke-linecap="butt" d="m11.64042 229.99686l510.99216 0" fill-rule="evenodd"/><path fill="#000000" fill-opacity="0.0" d="m389.01575 62.96063l146.14172 100.66141" fill-rule="evenodd"/><path stroke="#f9cb9c" stroke-width="16.0" stroke-linejoin="round" stroke-linecap="butt" d="m389.01575 62.96063l146.14172 100.66141" fill-rule="evenodd"/><path fill="#000000" fill-opacity="0.0" d="m902.6168 55.761154l-201.85828 107.842514" fill-rule="evenodd"/><path stroke="#e69138" stroke-width="16.0" stroke-linejoin="round" stroke-linecap="butt" d="m902.6168 55.761154l-201.85828 107.842514" fill-rule="evenodd"/><path fill="#000000" fill-opacity="0.0" d="m140.6063 278.78687l131.2756 0" fill-rule="evenodd"/><path stroke="#e69138" stroke-width="16.0" stroke-linejoin="round" stroke-linecap="butt" d="m140.6063 278.78687l131.2756 0" fill-rule="evenodd"/><path fill="#000000" fill-opacity="0.0" d="m140.6063 60.979004l252.40945 0" fill-rule="evenodd"/><path stroke="#e69138" stroke-width="16.0" stroke-linejoin="round" stroke-linecap="butt" d="m140.6063 60.979004l252.40945 0" fill-rule="evenodd"/><path fill="#000000" fill-opacity="0.0" d="m11.64042 162.83989l894.61414 0" fill-rule="evenodd"/><path stroke="#b45f06" stroke-width="16.0" stroke-linejoin="round" stroke-linecap="butt" d="m11.64042 162.83989l894.61414 0" fill-rule="evenodd"/><path fill="#000000" d="m368.24014 229.99686c0 -10.950027 8.87677 -19.826782 19.826782 -19.826782c5.2583923 0 10.301422 2.0888977 14.019653 5.807129c3.7182312 3.7182465 5.807129 8.761261 5.807129 14.019653c0 10.950012 -8.8767395 19.826767 -19.826782 19.826767c-10.950012 0 -19.826782 -8.876755 -19.826782 -19.826767z" fill-rule="evenodd"/><path fill="#ffffff" d="m384.15836 237.47685l-1.875 0l0 -11.9375q-0.6875 0.640625 -1.78125 1.28125q-1.09375 0.640625 -1.96875 0.96875l0 -1.8125q1.5625 -0.734375 2.734375 -1.78125q1.1875 -1.0625 1.671875 -2.046875l1.21875 0l0 15.328125zm4.7991943 -4.0l1.96875 -0.171875q0.21875 1.4375 1.015625 2.171875q0.796875 0.71875 1.921875 0.71875q1.34375 0 2.28125 -1.015625q0.9375 -1.03125 0.9375 -2.71875q0 -1.59375 -0.90625 -2.515625q-0.890625 -0.9375 -2.34375 -0.9375q-0.90625 0 -1.640625 0.421875q-0.734375 0.40625 -1.140625 1.0625l-1.765625 -0.234375l1.484375 -7.84375l7.59375 0l0 1.796875l-6.09375 0l-0.828125 4.09375q1.375 -0.953125 2.890625 -0.953125q2.0 0 3.359375 1.390625q1.375 1.375 1.375 3.5625q0 2.0625 -1.203125 3.578125q-1.46875 1.859375 -4.0 1.859375q-2.09375 0 -3.40625 -1.171875q-1.3125 -1.171875 -1.5 -3.09375z" fill-rule="nonzero"/><path fill="#000000" d="m319.47375 229.99686c0 -10.950027 8.8767395 -19.826782 19.826782 -19.826782c5.258362 0 10.301392 2.0888977 14.019623 5.807129c3.7182617 3.7182465 5.807129 8.761261 5.807129 14.019653c0 10.950012 -8.8767395 19.826767 -19.826752 19.826767c-10.950043 0 -19.826782 -8.876755 -19.826782 -19.826767z" fill-rule="evenodd"/><path fill="#ffffff" d="m335.39197 237.47685l-1.875 0l0 -11.9375q-0.6875 0.640625 -1.78125 1.28125q-1.09375 0.640625 -1.96875 0.96875l0 -1.8125q1.5625 -0.734375 2.734375 -1.78125q1.1875 -1.0625 1.671875 -2.046875l1.21875 0l0 15.328125zm14.642944 -1.796875l0 1.796875l-10.09375 0q-0.015625 -0.671875 0.21875 -1.296875q0.390625 -1.03125 1.234375 -2.03125q0.859375 -1.0 2.453125 -2.3125q2.5 -2.046875 3.375 -3.234375q0.875 -1.203125 0.875 -2.25q0 -1.125 -0.796875 -1.890625q-0.796875 -0.765625 -2.078125 -0.765625q-1.359375 0 -2.171875 0.8125q-0.8125 0.8125 -0.828125 2.25l-1.921875 -0.1875q0.203125 -2.15625 1.484375 -3.28125q1.296875 -1.140625 3.46875 -1.140625q2.203125 0 3.484375 1.21875q1.28125 1.21875 1.28125 3.015625q0 0.921875 -0.375 1.8125q-0.375 0.875 -1.25 1.859375q-0.859375 0.96875 -2.890625 2.6875q-1.6875 1.40625 -2.171875 1.921875q-0.46875 0.5 -0.78125 1.015625l7.484375 0z" fill-rule="nonzero"/><path fill="#000000" d="m116.379265 232.15695c0 -10.950027 8.876747 -19.826767 19.826775 -19.826767c5.258377 0 10.301407 2.0888824 14.019638 5.807129c3.7182465 3.7182312 5.807129 8.761261 5.807129 14.019638c0 10.950027 -8.8767395 19.826782 -19.826767 19.826782c-10.950027 0 -19.826775 -8.876755 -19.826775 -19.826782z" fill-rule="evenodd"/><path fill="#ffffff" d="m131.44707 236.10571l1.796875 -0.171875q0.234375 1.28125 0.875 1.859375q0.640625 0.5625 1.65625 0.5625q0.859375 0 1.515625 -0.390625q0.65625 -0.40625 1.0625 -1.0625q0.421875 -0.65625 0.703125 -1.78125q0.28125 -1.125 0.28125 -2.296875q0 -0.125 -0.015625 -0.375q-0.5625 0.890625 -1.53125 1.453125q-0.96875 0.5625 -2.109375 0.5625q-1.890625 0 -3.203125 -1.375q-1.3125 -1.375 -1.3125 -3.625q0 -2.328125 1.359375 -3.734375q1.375 -1.421875 3.4375 -1.421875q1.484375 0 2.71875 0.8125q1.234375 0.796875 1.875 2.28125q0.640625 1.484375 0.640625 4.28125q0 2.9375 -0.640625 4.671875q-0.625 1.734375 -1.890625 2.640625q-1.25 0.90625 -2.9375 0.90625q-1.78125 0 -2.921875 -1.0q-1.140625 -1.0 -1.359375 -2.796875zm7.671875 -6.734375q0 -1.609375 -0.859375 -2.5625q-0.859375 -0.953125 -2.0625 -0.953125q-1.25 0 -2.1875 1.03125q-0.921875 1.015625 -0.921875 2.640625q0 1.453125 0.875 2.375q0.890625 0.90625 2.171875 0.90625q1.3125 0 2.140625 -0.90625q0.84375 -0.921875 0.84375 -2.53125z" fill-rule="nonzero"/><path fill="#000000" d="m46.429134 165.88715c0 -10.950027 8.876747 -19.826782 19.82677 -19.826782c5.2583847 0 10.301407 2.0888824 14.019646 5.807129c3.7182388 3.7182465 5.807129 8.761261 5.807129 14.019653c0 10.950012 -8.876747 19.826767 -19.826775 19.826767c-10.950024 0 -19.82677 -8.876755 -19.82677 -19.826767z" fill-rule="evenodd"/><path fill="#ffffff" d="m61.496933 169.83589l1.796875 -0.171875q0.234375 1.28125 0.875 1.859375q0.640625 0.5625 1.65625 0.5625q0.859375 0 1.515625 -0.390625q0.65625 -0.40625 1.0625 -1.0625q0.421875 -0.65625 0.703125 -1.78125q0.28125 -1.125 0.28125 -2.296875q0 -0.125 -0.015625 -0.375q-0.5625 0.890625 -1.53125 1.453125q-0.96875 0.5625 -2.109375 0.5625q-1.890625 0 -3.203125 -1.375q-1.3125 -1.375 -1.3125 -3.625q0 -2.328125 1.359375 -3.734375q1.375 -1.421875 3.4375 -1.421875q1.484375 0 2.71875 0.8125q1.234375 0.796875 1.875 2.28125q0.640625 1.484375 0.640625 4.28125q0 2.9375 -0.640625 4.671875q-0.625 1.734375 -1.890625 2.640625q-1.25 0.90625 -2.9375 0.90625q-1.78125 0 -2.921875 -1.0q-1.140625 -1.0 -1.359375 -2.796875zm7.671875 -6.734375q0 -1.609375 -0.859375 -2.5625q-0.859375 -0.953125 -2.0625 -0.953125q-1.25 0 -2.1875 1.03125q-0.921875 1.015625 -0.921875 2.640625q0 1.453125 0.875 2.375q0.890625 0.90625 2.171875 0.90625q1.3125 0 2.140625 -0.90625q0.84375 -0.921875 0.84375 -2.53125z" fill-rule="nonzero"/><path fill="#000000" d="m405.14142 162.83989c0 -8.58432 6.9589844 -15.543304 15.543335 -15.543304c4.1223145 0 8.075836 1.6376038 10.990753 4.552536c2.9149475 2.9149323 4.5525513 6.8684387 4.5525513 10.990768c0 8.584335 -6.9589844 15.54332 -15.543304 15.54332c-8.584351 0 -15.543335 -6.9589844 -15.543335 -15.54332z" fill-rule="evenodd"/><path fill="#ffffff" d="m417.75507 168.69989l-1.40625 0l0 -8.96875q-0.515625 0.484375 -1.34375 0.96875q-0.8125 0.484375 -1.46875 0.734375l0 -1.359375q1.171875 -0.5625 2.046875 -1.34375q0.890625 -0.796875 1.265625 -1.53125l0.90625 0l0 11.5zm8.1015625 0l0 -2.75l-4.96875 0l0 -1.28125l5.234375 -7.421875l1.140625 0l0 7.421875l1.546875 0l0 1.28125l-1.546875 0l0 2.75l-1.40625 0zm0 -4.03125l0 -5.171875l-3.578125 5.171875l3.578125 0z" fill-rule="nonzero"/><path fill="#000000" d="m415.51413 90.98163c0 -8.584335 6.9589844 -15.543304 15.543304 -15.543304c4.122345 0 8.075836 1.6375885 10.990784 4.5525284c2.9149475 2.9149323 4.5525208 6.868431 4.5525208 10.990776c0 8.584328 -6.958954 15.543304 -15.543304 15.543304c-8.58432 0 -15.543304 -6.9589767 -15.543304 -15.543304z" fill-rule="evenodd"/><path fill="#ffffff" d="m428.12775 96.84163l-1.40625 0l0 -8.96875q-0.515625 0.484375 -1.34375 0.96875q-0.8125 0.484375 -1.46875 0.734375l0 -1.359375q1.171875 -0.5625 2.046875 -1.34375q0.890625 -0.796875 1.265625 -1.53125l0.90625 0l0 11.5zm3.6015625 -3.03125l1.40625 -0.1875q0.25 1.203125 0.828125 1.734375q0.578125 0.515625 1.421875 0.515625q0.984375 0 1.671875 -0.6875q0.6875 -0.6875 0.6875 -1.703125q0 -0.96875 -0.640625 -1.59375q-0.625 -0.625 -1.609375 -0.625q-0.390625 0 -0.984375 0.15625l0.15625 -1.234375q0.140625 0.015625 0.21875 0.015625q0.90625 0 1.625 -0.46875q0.71875 -0.46875 0.71875 -1.453125q0 -0.765625 -0.53125 -1.265625q-0.515625 -0.515625 -1.34375 -0.515625q-0.828125 0 -1.375 0.515625q-0.546875 0.515625 -0.703125 1.546875l-1.40625 -0.25q0.265625 -1.421875 1.171875 -2.1875q0.921875 -0.78125 2.28125 -0.78125q0.9375 0 1.71875 0.40625q0.796875 0.390625 1.203125 1.09375q0.421875 0.6875 0.421875 1.46875q0 0.75 -0.40625 1.359375q-0.390625 0.609375 -1.171875 0.96875q1.015625 0.234375 1.578125 0.96875q0.5625 0.734375 0.5625 1.84375q0 1.5 -1.09375 2.546875q-1.09375 1.046875 -2.765625 1.046875q-1.5 0 -2.5 -0.890625q-1.0 -0.90625 -1.140625 -2.34375z" fill-rule="nonzero"/><path fill="#ff0000" d="m365.4882 147.49869c0 -10.950027 8.8767395 -19.826775 19.826782 -19.826775c5.258362 0 10.301392 2.08889 14.019623 5.8071365c3.7182617 3.7182312 5.807129 8.761246 5.807129 14.019638c0 10.950027 -8.8767395 19.826767 -19.826752 19.826767c-10.950043 0 -19.826782 -8.8767395 -19.826782 -19.826767z" fill-rule="evenodd"/><path fill="#ffffff" d="m390.1185 153.18181l0 1.796875l-10.09375 0q-0.015625 -0.671875 0.21875 -1.296875q0.390625 -1.03125 1.234375 -2.03125q0.859375 -1.0 2.453125 -2.3125q2.5 -2.046875 3.375 -3.234375q0.875 -1.203125 0.875 -2.25q0 -1.125 -0.796875 -1.890625q-0.796875 -0.765625 -2.078125 -0.765625q-1.359375 0 -2.171875 0.8125q-0.8125 0.8125 -0.828125 2.25l-1.921875 -0.1875q0.203125 -2.15625 1.484375 -3.28125q1.296875 -1.140625 3.46875 -1.140625q2.203125 0 3.484375 1.21875q1.28125 1.21875 1.28125 3.015625q0 0.921875 -0.375 1.8125q-0.375 0.875 -1.25 1.859375q-0.859375 0.96875 -2.890625 2.6875q-1.6875 1.40625 -2.171875 1.921875q-0.46875 0.5 -0.78125 1.015625l7.484375 0z" fill-rule="nonzero"/><path fill="#ff0000" d="m365.4882 39.170605c0 -10.950026 8.8767395 -19.826773 19.826782 -19.826773c5.258362 0 10.301392 2.0888863 14.019623 5.807127c3.7182617 3.7182407 5.807129 8.761257 5.807129 14.019646c0 10.950024 -8.8767395 19.82677 -19.826752 19.82677c-10.950043 0 -19.826782 -8.876747 -19.826782 -19.82677z" fill-rule="evenodd"/><path fill="#ffffff" d="m387.33725 46.650604l-1.875 0l0 -11.9375q-0.6875 0.640625 -1.78125 1.28125q-1.09375 0.640625 -1.96875 0.96875l0 -1.8125q1.5625 -0.734375 2.734375 -1.78125q1.1875 -1.0625 1.671875 -2.046875l1.21875 0l0 15.328125z" fill-rule="nonzero"/><path fill="#ff0000" d="m573.68243 186.40683c0 -10.950027 8.876709 -19.826782 19.826782 -19.826782c5.258362 0 10.301392 2.0888977 14.019592 5.807129c3.7182617 3.7182465 5.807129 8.761261 5.807129 14.019653c0 10.950012 -8.876709 19.826767 -19.826721 19.826767c-10.950073 0 -19.826782 -8.876755 -19.826782 -19.826767z" fill-rule="evenodd"/><path fill="#ffffff" d="m592.3819 192.08995l0 1.796875l-10.09375 0q-0.015625 -0.671875 0.21875 -1.296875q0.390625 -1.03125 1.234375 -2.03125q0.859375 -1.0 2.453125 -2.3125q2.5 -2.046875 3.375 -3.234375q0.875 -1.203125 0.875 -2.25q0 -1.125 -0.796875 -1.890625q-0.796875 -0.765625 -2.078125 -0.765625q-1.359375 0 -2.171875 0.8125q-0.8125 0.8125 -0.828125 2.25l-1.921875 -0.1875q0.203125 -2.15625 1.484375 -3.28125q1.296875 -1.140625 3.46875 -1.140625q2.203125 0 3.484375 1.21875q1.28125 1.21875 1.28125 3.015625q0 0.921875 -0.375 1.8125q-0.375 0.875 -1.25 1.859375q-0.859375 0.96875 -2.890625 2.6875q-1.6875 1.40625 -2.171875 1.921875q-0.46875 0.5 -0.78125 1.015625l7.484375 0zm8.017944 1.796875l0 -3.65625l-6.625 0l0 -1.71875l6.96875 -9.890625l1.53125 0l0 9.890625l2.0625 0l0 1.71875l-2.0625 0l0 3.65625l-1.875 0zm0 -5.375l0 -6.875l-4.78125 6.875l4.78125 0z" fill-rule="nonzero"/><path fill="#ff0000" d="m573.68243 222.36745c0 -10.950012 8.876709 -19.826767 19.826782 -19.826767c5.258362 0 10.301392 2.0888824 14.019592 5.807129c3.7182617 3.7182465 5.807129 8.761261 5.807129 14.019638c0 10.950027 -8.876709 19.826782 -19.826721 19.826782c-10.950073 0 -19.826782 -8.876755 -19.826782 -19.826782z" fill-rule="evenodd"/><path fill="#ffffff" d="m592.3819 228.05058l0 1.796875l-10.09375 0q-0.015625 -0.671875 0.21875 -1.296875q0.390625 -1.03125 1.234375 -2.03125q0.859375 -1.0 2.453125 -2.3125q2.5 -2.046875 3.375 -3.234375q0.875 -1.203125 0.875 -2.25q0 -1.125 -0.796875 -1.890625q-0.796875 -0.765625 -2.078125 -0.765625q-1.359375 0 -2.171875 0.8125q-0.8125 0.8125 -0.828125 2.25l-1.921875 -0.1875q0.203125 -2.15625 1.484375 -3.28125q1.296875 -1.140625 3.46875 -1.140625q2.203125 0 3.484375 1.21875q1.28125 1.21875 1.28125 3.015625q0 0.921875 -0.375 1.8125q-0.375 0.875 -1.25 1.859375q-0.859375 0.96875 -2.890625 2.6875q-1.6875 1.40625 -2.171875 1.921875q-0.46875 0.5 -0.78125 1.015625l7.484375 0zm2.0179443 -2.203125l1.96875 -0.171875q0.21875 1.4375 1.015625 2.171875q0.796875 0.71875 1.921875 0.71875q1.34375 0 2.28125 -1.015625q0.9375 -1.03125 0.9375 -2.71875q0 -1.59375 -0.90625 -2.515625q-0.890625 -0.9375 -2.34375 -0.9375q-0.90625 0 -1.640625 0.421875q-0.734375 0.40625 -1.140625 1.0625l-1.765625 -0.234375l1.484375 -7.84375l7.59375 0l0 1.796875l-6.09375 0l-0.828125 4.09375q1.375 -0.953125 2.890625 -0.953125q2.0 0 3.359375 1.390625q1.375 1.375 1.375 3.5625q0 2.0625 -1.203125 3.578125q-1.46875 1.859375 -4.0 1.859375q-2.09375 0 -3.40625 -1.171875q-1.3125 -1.171875 -1.5 -3.09375z" fill-rule="nonzero"/><path fill="#ff0000" d="m641.1706 141.43307c0 -10.950027 8.87677 -19.826775 19.826782 -19.826775c5.258362 0 10.301392 2.0888824 14.019653 5.807129c3.7182617 3.7182388 5.807129 8.761253 5.807129 14.019646c0 10.950012 -8.87677 19.826767 -19.826782 19.826767c-10.950012 0 -19.826782 -8.876755 -19.826782 -19.826767z" fill-rule="evenodd"/><path fill="#ffffff" d="m661.95715 148.91307l0 -3.65625l-6.625 0l0 -1.71875l6.96875 -9.890625l1.53125 0l0 9.890625l2.0625 0l0 1.71875l-2.0625 0l0 3.65625l-1.875 0zm0 -5.375l0 -6.875l-4.78125 6.875l4.78125 0z" fill-rule="nonzero"/><path fill="#ff0000" d="m641.1706 104.979004c0 -10.950027 8.87677 -19.826775 19.826782 -19.826775c5.258362 0 10.301392 2.08889 14.019653 5.807129c3.7182617 3.7182388 5.807129 8.761261 5.807129 14.019646c0 10.95002 -8.87677 19.826767 -19.826782 19.826767c-10.950012 0 -19.826782 -8.876747 -19.826782 -19.826767z" fill-rule="evenodd"/><path fill="#ffffff" d="m655.95715 108.42775l1.875 -0.25q0.328125 1.59375 1.09375 2.296875q0.78125 0.703125 1.90625 0.703125q1.3125 0 2.21875 -0.90625q0.921875 -0.921875 0.921875 -2.28125q0 -1.296875 -0.84375 -2.125q-0.84375 -0.84375 -2.140625 -0.84375q-0.53125 0 -1.328125 0.203125l0.203125 -1.640625q0.1875 0.015625 0.3125 0.015625q1.1875 0 2.140625 -0.625q0.96875 -0.625 0.96875 -1.921875q0 -1.03125 -0.703125 -1.703125q-0.6875 -0.671875 -1.796875 -0.671875q-1.09375 0 -1.828125 0.6875q-0.71875 0.6875 -0.9375 2.0625l-1.875 -0.34375q0.34375 -1.875 1.5625 -2.90625q1.21875 -1.046875 3.03125 -1.046875q1.25 0 2.296875 0.546875q1.0625 0.53125 1.609375 1.453125q0.5625 0.921875 0.5625 1.96875q0 0.984375 -0.53125 1.796875q-0.53125 0.8125 -1.5625 1.296875q1.34375 0.3125 2.09375 1.296875q0.75 0.984375 0.75 2.453125q0 2.0 -1.453125 3.390625q-1.453125 1.390625 -3.6875 1.390625q-2.015625 0 -3.34375 -1.1875q-1.328125 -1.203125 -1.515625 -3.109375z" fill-rule="nonzero"/><path fill="#ff0000" d="m772.8189 131.75328c0 -10.95002 8.876709 -19.826775 19.826782 -19.826775c5.258362 0 10.301392 2.08889 14.019653 5.807129c3.7182007 3.7182388 5.807068 8.761261 5.807068 14.019646c0 10.950027 -8.876709 19.826767 -19.826721 19.826767c-10.950073 0 -19.826782 -8.8767395 -19.826782 -19.826767z" fill-rule="evenodd"/><path fill="#ffffff" d="m791.5184 137.4364l0 1.796875l-10.09375 0q-0.015625 -0.671875 0.21875 -1.296875q0.390625 -1.03125 1.234375 -2.03125q0.859375 -1.0 2.453125 -2.3125q2.5 -2.046875 3.375 -3.234375q0.875 -1.203125 0.875 -2.25q0 -1.1249924 -0.796875 -1.8906174q-0.796875 -0.765625 -2.078125 -0.765625q-1.359375 0 -2.171875 0.8125q-0.8125 0.8125 -0.828125 2.2499924l-1.921875 -0.1875q0.203125 -2.1562424 1.484375 -3.2812424q1.296875 -1.140625 3.46875 -1.140625q2.203125 0 3.484375 1.21875q1.28125 1.21875 1.28125 3.0156174q0 0.921875 -0.375 1.8125q-0.375 0.875 -1.25 1.859375q-0.859375 0.96875 -2.890625 2.6875q-1.6875 1.40625 -2.171875 1.921875q-0.46875 0.5 -0.78125 1.015625l7.484375 0zm11.736694 -9.734367l-1.859375 0.15625q-0.25 -1.109375 -0.703125 -1.609375q-0.765625 -0.796875 -1.875 -0.796875q-0.90625 0 -1.578125 0.5q-0.890625 0.640625 -1.40625 1.875q-0.5 1.2343674 -0.515625 3.5312424q0.671875 -1.03125 1.640625 -1.53125q0.984375 -0.5 2.0625 -0.5q1.875 0 3.1875 1.390625q1.3125 1.375 1.3125 3.5625q0 1.4375 -0.625 2.671875q-0.609375 1.234375 -1.6875 1.890625q-1.078125 0.65625 -2.453125 0.65625q-2.34375 0 -3.828125 -1.71875q-1.484375 -1.734375 -1.484375 -5.6875q0 -4.4218674 1.640625 -6.4374924q1.421875 -1.75 3.84375 -1.75q1.796875 0 2.953125 1.015625q1.15625 1.0 1.375 2.78125zm-7.65625 6.5781174q0 0.96875 0.40625 1.859375q0.421875 0.890625 1.15625 1.359375q0.75 0.453125 1.5625 0.453125q1.1875 0 2.03125 -0.953125q0.859375 -0.96875 0.859375 -2.609375q0 -1.578125 -0.84375 -2.484375q-0.84375 -0.921875 -2.125 -0.921875q-1.265625 0 -2.15625 0.921875q-0.890625 0.90625 -0.890625 2.375z" fill-rule="nonzero"/><path fill="#ff0000" d="m760.043 184.72704c0 -10.950027 8.87677 -19.826767 19.826782 -19.826767c5.258362 0 10.301392 2.0888824 14.019653 5.8071136c3.7182617 3.7182465 5.807129 8.761261 5.807129 14.019653c0 10.950027 -8.87677 19.826767 -19.826782 19.826767c-10.950012 0 -19.826782 -8.8767395 -19.826782 -19.826767z" fill-rule="evenodd"/><path fill="#ffffff" d="m778.7425 190.41016l0 1.796875l-10.09375 0q-0.015625 -0.671875 0.21875 -1.296875q0.390625 -1.03125 1.234375 -2.03125q0.859375 -1.0 2.453125 -2.3125q2.5 -2.046875 3.375 -3.234375q0.875 -1.203125 0.875 -2.25q0 -1.125 -0.796875 -1.890625q-0.796875 -0.765625 -2.078125 -0.765625q-1.359375 0 -2.171875 0.8125q-0.8125 0.8125 -0.828125 2.25l-1.921875 -0.1875q0.203125 -2.15625 1.484375 -3.28125q1.296875 -1.140625 3.46875 -1.140625q2.203125 0 3.484375 1.21875q1.28125 1.21875 1.28125 3.015625q0 0.921875 -0.375 1.8125q-0.375 0.875 -1.25 1.859375q-0.859375 0.96875 -2.890625 2.6875q-1.6875 1.40625 -2.171875 1.921875q-0.46875 0.5 -0.78125 1.015625l7.484375 0zm2.1429443 -11.46875l0 -1.796875l9.875 0l0 1.453125q-1.453125 1.546875 -2.890625 4.125q-1.421875 2.5625 -2.203125 5.28125q-0.5625 1.921875 -0.71875 4.203125l-1.9375 0q0.03125 -1.796875 0.703125 -4.34375q0.6875 -2.5625 1.953125 -4.921875q1.265625 -2.375 2.6875 -4.0l-7.46875 0z" fill-rule="nonzero"/><path fill="#ff0000" d="m278.06036 215.00998c0 -8.584335 6.9589844 -15.54332 15.543304 -15.54332c4.122345 0 8.075836 1.6376038 10.990784 4.552536c2.9149475 2.9149323 4.5525208 6.8684387 4.5525208 10.990784c0 8.58432 -6.958954 15.543304 -15.543304 15.543304c-8.58432 0 -15.543304 -6.9589844 -15.543304 -15.543304z" fill-rule="evenodd"/><path fill="#ffffff" d="m290.67398 220.86998l-1.40625 0l0 -8.96875q-0.515625 0.484375 -1.34375 0.96875q-0.8125 0.484375 -1.46875 0.734375l0 -1.359375q1.171875 -0.5625 2.046875 -1.34375q0.890625 -0.796875 1.265625 -1.53125l0.90625 0l0 11.5zm3.6015625 -5.65625q0 -2.03125 0.40625 -3.265625q0.421875 -1.234375 1.25 -1.90625q0.828125 -0.671875 2.078125 -0.671875q0.921875 0 1.609375 0.375q0.703125 0.359375 1.15625 1.0625q0.453125 0.703125 0.703125 1.703125q0.265625 1.0 0.265625 2.703125q0 2.015625 -0.421875 3.265625q-0.40625 1.234375 -1.234375 1.921875q-0.828125 0.671875 -2.078125 0.671875q-1.65625 0 -2.609375 -1.203125q-1.125 -1.421875 -1.125 -4.65625zm1.4375 0q0 2.828125 0.65625 3.765625q0.671875 0.921875 1.640625 0.921875q0.96875 0 1.625 -0.9375q0.65625 -0.9375 0.65625 -3.75q0 -2.828125 -0.65625 -3.75q-0.65625 -0.9375 -1.640625 -0.9375q-0.96875 0 -1.546875 0.828125q-0.734375 1.046875 -0.734375 3.859375z" fill-rule="nonzero"/><path fill="#ff0000" d="m231.7559 264.07822c0 -8.584335 6.958969 -15.543304 15.543304 -15.543304c4.122345 0 8.075851 1.6375885 10.990768 4.5525208c2.9149475 2.9149475 4.5525513 6.8684387 4.5525513 10.990784c0 8.58432 -6.9589844 15.543304 -15.54332 15.543304c-8.584335 0 -15.543304 -6.9589844 -15.543304 -15.543304z" fill-rule="evenodd"/><path fill="#ffffff" d="m244.96327 269.9382l-1.40625 0l0 -8.96875q-0.515625 0.484375 -1.34375 0.96875q-0.8125 0.484375 -1.46875 0.734375l0 -1.359375q1.171875 -0.5625 2.046875 -1.34375q0.890625 -0.796875 1.265625 -1.53125l0.90625 0l0 11.5zm7.7109375 0l-1.40625 0l0 -8.96875q-0.515625 0.484375 -1.34375 0.96875q-0.8125 0.484375 -1.46875 0.734375l0 -1.359375q1.171875 -0.5625 2.046875 -1.34375q0.890625 -0.796875 1.265625 -1.53125l0.90625 0l0 11.5z" fill-rule="nonzero"/><path fill="#ff0000" d="m70.67191 232.15695c0 -8.584335 6.9589767 -15.543304 15.543312 -15.543304c4.1223373 0 8.075844 1.6375885 10.990776 4.552536c2.9149323 2.9149323 4.5525284 6.8684235 4.5525284 10.990768c0 8.584335 -6.9589767 15.543304 -15.543304 15.543304c-8.584335 0 -15.543312 -6.958969 -15.543312 -15.543304z" fill-rule="evenodd"/><path fill="#ffffff" d="m84.59413 231.7982q-0.875 -0.3125 -1.296875 -0.90625q-0.421875 -0.59375 -0.421875 -1.421875q0 -1.25 0.890625 -2.09375q0.90625 -0.859375 2.40625 -0.859375q1.5 0 2.40625 0.875q0.921875 0.859375 0.921875 2.109375q0 0.796875 -0.421875 1.390625q-0.421875 0.59375 -1.265625 0.90625q1.046875 0.34375 1.59375 1.109375q0.5625 0.765625 0.5625 1.828125q0 1.46875 -1.046875 2.484375q-1.03125 1.0 -2.734375 1.0q-1.6875 0 -2.734375 -1.0q-1.03125 -1.015625 -1.03125 -2.515625q0 -1.125 0.5625 -1.875q0.5625 -0.75 1.609375 -1.03125zm-0.28125 -2.375q0 0.8125 0.515625 1.328125q0.53125 0.515625 1.375 0.515625q0.8125 0 1.328125 -0.515625q0.515625 -0.515625 0.515625 -1.25q0 -0.78125 -0.53125 -1.296875q-0.53125 -0.53125 -1.328125 -0.53125q-0.8125 0 -1.34375 0.515625q-0.53125 0.515625 -0.53125 1.234375zm-0.453125 5.28125q0 0.609375 0.28125 1.171875q0.296875 0.5625 0.859375 0.875q0.5625 0.296875 1.203125 0.296875q1.015625 0 1.671875 -0.640625q0.65625 -0.65625 0.65625 -1.65625q0 -1.015625 -0.6875 -1.671875q-0.671875 -0.671875 -1.6875 -0.671875q-0.984375 0 -1.640625 0.65625q-0.65625 0.65625 -0.65625 1.640625z" fill-rule="nonzero"/><path fill="#ff0000" d="m11.639108 162.83989c0 -8.58432 6.958976 -15.543304 15.543307 -15.543304c4.122341 0 8.075844 1.6376038 10.990776 4.552536c2.914936 2.9149323 4.552532 6.8684387 4.552532 10.990768c0 8.584335 -6.9589767 15.54332 -15.543308 15.54332c-8.5843315 0 -15.543307 -6.9589844 -15.543307 -15.54332z" fill-rule="evenodd"/><path fill="#ffffff" d="m23.498821 158.74677l0 -1.359375l7.40625 0l0 1.09375q-1.09375 1.171875 -2.171875 3.109375q-1.0625 1.921875 -1.65625 3.953125q-0.421875 1.4375 -0.53125 3.15625l-1.453125 0q0.03125 -1.359375 0.53125 -3.265625q0.515625 -1.921875 1.453125 -3.6875q0.953125 -1.78125 2.03125 -3.0l-5.609375 0z" fill-rule="nonzero"/><path fill="#ff0000" d="m168.26115 232.15564c0 -8.584335 6.958969 -15.543304 15.543304 -15.543304c4.122345 0 8.075851 1.6375885 10.990784 4.552536c2.9149323 2.9149323 4.5525208 6.8684235 4.5525208 10.990768c0 8.584335 -6.958969 15.543304 -15.543304 15.543304c-8.584335 0 -15.543304 -6.958969 -15.543304 -15.543304z" fill-rule="evenodd"/><path fill="#ffffff" d="m182.96852 236.65627l0 1.359375l-7.578125 0q-0.015625 -0.515625 0.171875 -0.984375q0.28125 -0.765625 0.921875 -1.515625q0.640625 -0.75 1.84375 -1.734375q1.859375 -1.53125 2.515625 -2.421875q0.65625 -0.90625 0.65625 -1.703125q0 -0.828125 -0.59375 -1.40625q-0.59375 -0.578125 -1.5625 -0.578125q-1.015625 0 -1.625 0.609375q-0.609375 0.609375 -0.609375 1.6875l-1.453125 -0.140625q0.15625 -1.625 1.125 -2.46875q0.96875 -0.84375 2.59375 -0.84375q1.65625 0 2.609375 0.921875q0.96875 0.90625 0.96875 2.25q0 0.6875 -0.28125 1.359375q-0.28125 0.65625 -0.9375 1.390625q-0.65625 0.734375 -2.171875 2.015625q-1.265625 1.0625 -1.625 1.453125q-0.359375 0.375 -0.59375 0.75l5.625 0zm8.8984375 0l0 1.359375l-7.578125 0q-0.015625 -0.515625 0.171875 -0.984375q0.28125 -0.765625 0.921875 -1.515625q0.640625 -0.75 1.84375 -1.734375q1.859375 -1.53125 2.515625 -2.421875q0.65625 -0.90625 0.65625 -1.703125q0 -0.828125 -0.59375 -1.40625q-0.59375 -0.578125 -1.5625 -0.578125q-1.015625 0 -1.625 0.609375q-0.609375 0.609375 -0.609375 1.6875l-1.453125 -0.140625q0.15625 -1.625 1.125 -2.46875q0.96875 -0.84375 2.59375 -0.84375q1.65625 0 2.609375 0.921875q0.96875 0.90625 0.96875 2.25q0 0.6875 -0.28125 1.359375q-0.28125 0.65625 -0.9375 1.390625q-0.65625 0.734375 -2.171875 2.015625q-1.265625 1.0625 -1.625 1.453125q-0.359375 0.375 -0.59375 0.75l5.625 0z" fill-rule="nonzero"/><path fill="#ff0000" d="m98.3727 162.83858c0 -8.58432 6.9589767 -15.543304 15.543304 -15.543304c4.122345 0 8.075844 1.6376038 10.990784 4.552536c2.9149323 2.9149323 4.5525284 6.8684387 4.5525284 10.990768c0 8.584335 -6.9589767 15.54332 -15.543312 15.54332c-8.584328 0 -15.543304 -6.9589844 -15.543304 -15.54332z" fill-rule="evenodd"/><path fill="#ffffff" d="m113.08007 167.3392l0 1.359375l-7.578125 0q-0.015625 -0.515625 0.171875 -0.984375q0.28125 -0.765625 0.921875 -1.515625q0.640625 -0.75 1.84375 -1.734375q1.859375 -1.53125 2.515625 -2.421875q0.65625 -0.90625 0.65625 -1.703125q0 -0.828125 -0.59375 -1.40625q-0.59375 -0.578125 -1.5625 -0.578125q-1.015625 0 -1.625 0.609375q-0.609375 0.609375 -0.609375 1.6875l-1.453125 -0.140625q0.15625 -1.625 1.125 -2.46875q0.96875 -0.84375 2.59375 -0.84375q1.65625 0 2.609375 0.921875q0.96875 0.90625 0.96875 2.25q0 0.6875 -0.28125 1.359375q-0.28125 0.65625 -0.9375 1.390625q-0.65625 0.734375 -2.171875 2.015625q-1.265625 1.0625 -1.625 1.453125q-0.359375 0.375 -0.59375 0.75l5.625 0zm6.8046875 1.359375l-1.40625 0l0 -8.96875q-0.515625 0.484375 -1.34375 0.96875q-0.8125 0.484375 -1.46875 0.734375l0 -1.359375q1.171875 -0.5625 2.046875 -1.34375q0.890625 -0.796875 1.265625 -1.53125l0.90625 0l0 11.5z" fill-rule="nonzero"/><path fill="#ff0000" d="m422.3937 248.86824c0 -8.584335 6.9589844 -15.543304 15.543304 -15.543304c4.122345 0 8.075836 1.6375885 10.990784 4.5525208c2.914917 2.9149475 4.5525208 6.8684387 4.5525208 10.990784c0 8.584335 -6.9589844 15.54332 -15.543304 15.54332c-8.58432 0 -15.543304 -6.9589844 -15.543304 -15.54332z" fill-rule="evenodd"/><path fill="#ffffff" d="m437.10107 253.36887l0 1.359375l-7.578125 0q-0.015625 -0.515625 0.171875 -0.984375q0.28125 -0.765625 0.921875 -1.515625q0.640625 -0.75 1.84375 -1.734375q1.859375 -1.53125 2.515625 -2.421875q0.65625 -0.90625 0.65625 -1.703125q0 -0.828125 -0.59375 -1.40625q-0.59375 -0.578125 -1.5625 -0.578125q-1.015625 0 -1.625 0.609375q-0.609375 0.609375 -0.609375 1.6875l-1.453125 -0.140625q0.15625 -1.625 1.125 -2.46875q0.96875 -0.84375 2.59375 -0.84375q1.65625 0 2.609375 0.921875q0.96875 0.90625 0.96875 2.25q0 0.6875 -0.28125 1.359375q-0.28125 0.65625 -0.9375 1.390625q-0.65625 0.734375 -2.171875 2.015625q-1.265625 1.0625 -1.625 1.453125q-0.359375 0.375 -0.59375 0.75l5.625 0zm1.5078125 -1.671875l1.40625 -0.1875q0.25 1.203125 0.828125 1.734375q0.578125 0.515625 1.421875 0.515625q0.984375 0 1.671875 -0.6875q0.6875 -0.6875 0.6875 -1.703125q0 -0.96875 -0.640625 -1.59375q-0.625 -0.625 -1.609375 -0.625q-0.390625 0 -0.984375 0.15625l0.15625 -1.234375q0.140625 0.015625 0.21875 0.015625q0.90625 0 1.625 -0.46875q0.71875 -0.46875 0.71875 -1.453125q0 -0.765625 -0.53125 -1.265625q-0.515625 -0.515625 -1.34375 -0.515625q-0.828125 0 -1.375 0.515625q-0.546875 0.515625 -0.703125 1.546875l-1.40625 -0.25q0.265625 -1.421875 1.171875 -2.1875q0.921875 -0.78125 2.28125 -0.78125q0.9375 0 1.71875 0.40625q0.796875 0.390625 1.203125 1.09375q0.421875 0.6875 0.421875 1.46875q0 0.75 -0.40625 1.359375q-0.390625 0.609375 -1.171875 0.96875q1.015625 0.234375 1.578125 0.96875q0.5625 0.734375 0.5625 1.84375q0 1.5 -1.09375 2.546875q-1.09375 1.046875 -2.765625 1.046875q-1.5 0 -2.5 -0.890625q-1.0 -0.90625 -1.140625 -2.34375z" fill-rule="nonzero"/><path fill="#1155cc" d="m450.8619 197.52547c0 -8.584335 6.9589844 -15.54332 15.543304 -15.54332c4.122345 0 8.075836 1.6376038 10.990784 4.552536c2.914917 2.9149323 4.5525208 6.8684387 4.5525208 10.990784c0 8.58432 -6.9589844 15.543304 -15.543304 15.543304c-8.58432 0 -15.543304 -6.9589844 -15.543304 -15.543304z" fill-rule="evenodd"/><path fill="#ffffff" d="m463.47552 203.38545l-1.40625 0l0 -8.96875q-0.515625 0.484375 -1.34375 0.96875q-0.8125 0.484375 -1.46875 0.734375l0 -1.359375q1.171875 -0.5625 2.046875 -1.34375q0.890625 -0.796875 1.265625 -1.53125l0.90625 0l0 11.5zm10.8984375 -8.65625l-1.40625 0.109375q-0.1875 -0.828125 -0.53125 -1.203125q-0.5625 -0.59375 -1.40625 -0.59375q-0.671875 0 -1.171875 0.375q-0.671875 0.484375 -1.0625 1.421875q-0.375 0.921875 -0.390625 2.640625q0.515625 -0.78125 1.25 -1.15625q0.734375 -0.375 1.53125 -0.375q1.40625 0 2.390625 1.046875q1.0 1.03125 1.0 2.671875q0 1.078125 -0.46875 2.0q-0.46875 0.921875 -1.28125 1.421875q-0.8125 0.5 -1.84375 0.5q-1.75 0 -2.859375 -1.296875q-1.109375 -1.296875 -1.109375 -4.265625q0 -3.328125 1.21875 -4.828125q1.078125 -1.3125 2.890625 -1.3125q1.34375 0 2.203125 0.765625q0.875 0.75 1.046875 2.078125zm-5.75 4.9375q0 0.734375 0.3125 1.40625q0.3125 0.65625 0.859375 1.0q0.5625 0.34375 1.171875 0.34375q0.890625 0 1.53125 -0.71875q0.640625 -0.71875 0.640625 -1.953125q0 -1.1875 -0.640625 -1.859375q-0.625 -0.6875 -1.59375 -0.6875q-0.953125 0 -1.625 0.6875q-0.65625 0.671875 -0.65625 1.78125z" fill-rule="nonzero"/><path fill="#1155cc" d="m521.8225 197.52547c0 -8.584335 6.9589844 -15.54332 15.543335 -15.54332c4.1223145 0 8.075867 1.6376038 10.990784 4.552536c2.914917 2.9149323 4.55249 6.8684387 4.55249 10.990784c0 8.58432 -6.9589233 15.543304 -15.543274 15.543304c-8.584351 0 -15.543335 -6.9589844 -15.543335 -15.543304z" fill-rule="evenodd"/><path fill="#ffffff" d="m534.43616 203.38545l-1.40625 0l0 -8.96875q-0.515625 0.484375 -1.34375 0.96875q-0.8125 0.484375 -1.46875 0.734375l0 -1.359375q1.171875 -0.5625 2.046875 -1.34375q0.890625 -0.796875 1.265625 -1.53125l0.90625 0l0 11.5zm5.7578125 -6.21875q-0.875 -0.3125 -1.296875 -0.90625q-0.421875 -0.59375 -0.421875 -1.421875q0 -1.25 0.890625 -2.09375q0.90625 -0.859375 2.40625 -0.859375q1.5 0 2.40625 0.875q0.921875 0.859375 0.921875 2.109375q0 0.796875 -0.421875 1.390625q-0.421875 0.59375 -1.265625 0.90625q1.046875 0.34375 1.59375 1.109375q0.5625 0.765625 0.5625 1.828125q0 1.46875 -1.046875 2.484375q-1.03125 1.0 -2.734375 1.0q-1.6875 0 -2.734375 -1.0q-1.03125 -1.015625 -1.03125 -2.515625q0 -1.125 0.5625 -1.875q0.5625 -0.75 1.609375 -1.03125zm-0.28125 -2.375q0 0.8125 0.515625 1.328125q0.53125 0.515625 1.375 0.515625q0.8125 0 1.328125 -0.515625q0.515625 -0.515625 0.515625 -1.25q0 -0.78125 -0.53125 -1.296875q-0.53125 -0.53125 -1.328125 -0.53125q-0.8125 0 -1.34375 0.515625q-0.53125 0.515625 -0.53125 1.234375zm-0.453125 5.28125q0 0.609375 0.28125 1.171875q0.296875 0.5625 0.859375 0.875q0.5625 0.296875 1.203125 0.296875q1.015625 0 1.671875 -0.640625q0.65625 -0.65625 0.65625 -1.65625q0 -1.015625 -0.6875 -1.671875q-0.671875 -0.671875 -1.6875 -0.671875q-0.984375 0 -1.640625 0.65625q-0.65625 0.65625 -0.65625 1.640625z" fill-rule="nonzero"/><path fill="#1155cc" d="m695.2215 131.75328c0 -8.584328 6.9589844 -15.543304 15.543274 -15.543304c4.1223755 0 8.075867 1.6375885 10.990784 4.5525284c2.914978 2.9149323 4.5525513 6.8684387 4.5525513 10.990776c0 8.584335 -6.9589844 15.543304 -15.543335 15.543304c-8.58429 0 -15.543274 -6.958969 -15.543274 -15.543304z" fill-rule="evenodd"/><path fill="#ffffff" d="m709.92883 136.2539l0 1.359375l-7.578125 0q-0.015625 -0.515625 0.171875 -0.984375q0.28125 -0.765625 0.921875 -1.515625q0.640625 -0.75 1.84375 -1.734375q1.859375 -1.53125 2.515625 -2.421875q0.65625 -0.90625 0.65625 -1.703125q0 -0.828125 -0.59375 -1.40625q-0.59375 -0.578125 -1.5625 -0.578125q-1.015625 0 -1.625 0.609375q-0.609375 0.609375 -0.609375 1.6875l-1.453125 -0.140625q0.15625 -1.625 1.125 -2.46875q0.96875 -0.84375 2.59375 -0.84375q1.65625 0 2.609375 0.921875q0.96875 0.90625 0.96875 2.25q0 0.6875 -0.28125 1.359375q-0.28125 0.65625 -0.9375 1.390625q-0.65625 0.734375 -2.171875 2.015625q-1.265625 1.0625 -1.625 1.453125q-0.359375 0.375 -0.59375 0.75l5.625 0zm1.5078125 -4.296875q0 -2.03125 0.40625 -3.265625q0.421875 -1.234375 1.25 -1.90625q0.828125 -0.671875 2.078125 -0.671875q0.921875 0 1.609375 0.375q0.703125 0.359375 1.15625 1.0625q0.453125 0.703125 0.703125 1.703125q0.265625 1.0 0.265625 2.703125q0 2.015625 -0.421875 3.265625q-0.40625 1.234375 -1.234375 1.921875q-0.828125 0.671875 -2.078125 0.671875q-1.65625 0 -2.609375 -1.203125q-1.125 -1.421875 -1.125 -4.65625zm1.4375 0q0 2.828125 0.65625 3.765625q0.671875 0.921875 1.640625 0.921875q0.96875 0 1.625 -0.9375q0.65625 -0.9375 0.65625 -3.75q0 -2.828125 -0.65625 -3.75q-0.65625 -0.9375 -1.640625 -0.9375q-0.96875 0 -1.546875 0.828125q-0.734375 1.046875 -0.734375 3.859375z" fill-rule="nonzero"/><path fill="#000000" d="m446.59973 165.88715c0 -10.950027 8.8767395 -19.826782 19.826782 -19.826782c5.2583923 0 10.301392 2.0888824 14.019653 5.807129c3.7182312 3.7182465 5.807129 8.761261 5.807129 14.019653c0 10.950012 -8.87677 19.826767 -19.826782 19.826767c-10.950043 0 -19.826782 -8.876755 -19.826782 -19.826767z" fill-rule="evenodd"/><path fill="#ffffff" d="m462.51794 173.36714l-1.875 0l0 -11.9375q-0.6875 0.640625 -1.78125 1.28125q-1.09375 0.640625 -1.96875 0.96875l0 -1.8125q1.5625 -0.734375 2.734375 -1.78125q1.1875 -1.0625 1.671875 -2.046875l1.21875 0l0 15.328125zm4.7991943 -4.0l1.96875 -0.171875q0.21875 1.4375 1.015625 2.171875q0.796875 0.71875 1.921875 0.71875q1.34375 0 2.28125 -1.015625q0.9375 -1.03125 0.9375 -2.71875q0 -1.59375 -0.90625 -2.515625q-0.890625 -0.9375 -2.34375 -0.9375q-0.90625 0 -1.640625 0.421875q-0.734375 0.40625 -1.140625 1.0625l-1.765625 -0.234375l1.484375 -7.84375l7.59375 0l0 1.796875l-6.09375 0l-0.828125 4.09375q1.375 -0.953125 2.890625 -0.953125q2.0 0 3.359375 1.390625q1.375 1.375 1.375 3.5625q0 2.0625 -1.203125 3.578125q-1.46875 1.859375 -4.0 1.859375q-2.09375 0 -3.40625 -1.171875q-1.3125 -1.171875 -1.5 -3.09375z" fill-rule="nonzero"/><path fill="#000000" d="m517.53674 165.88715c0 -10.950027 8.87677 -19.826782 19.826782 -19.826782c5.258362 0 10.301392 2.0888824 14.019653 5.807129c3.7182007 3.7182465 5.807129 8.761261 5.807129 14.019653c0 10.950012 -8.87677 19.826767 -19.826782 19.826767c-10.950012 0 -19.826782 -8.876755 -19.826782 -19.826767z" fill-rule="evenodd"/><path fill="#ffffff" d="m533.45496 173.36714l-1.875 0l0 -11.9375q-0.6875 0.640625 -1.78125 1.28125q-1.09375 0.640625 -1.96875 0.96875l0 -1.8125q1.5625 -0.734375 2.734375 -1.78125q1.1875 -1.0625 1.671875 -2.046875l1.21875 0l0 15.328125zm4.9241943 -13.265625l0 -1.796875l9.875 0l0 1.453125q-1.453125 1.546875 -2.890625 4.125q-1.421875 2.5625 -2.203125 5.28125q-0.5625 1.921875 -0.71875 4.203125l-1.9375 0q0.03125 -1.796875 0.703125 -4.34375q0.6875 -2.5625 1.953125 -4.921875q1.265625 -2.375 2.6875 -4.0l-7.46875 0z" fill-rule="nonzero"/><path fill="#000000" d="m690.93567 162.83989c0 -10.950012 8.87677 -19.826767 19.826782 -19.826767c5.258423 0 10.301392 2.0888824 14.019653 5.807129c3.7182617 3.7182465 5.807129 8.761261 5.807129 14.019638c0 10.950027 -8.87677 19.826782 -19.826782 19.826782c-10.950012 0 -19.826782 -8.876755 -19.826782 -19.826782z" fill-rule="evenodd"/><path fill="#ffffff" d="m706.8539 170.3199l-1.875 0l0 -11.9375q-0.6875 0.640625 -1.78125 1.28125q-1.09375 0.640625 -1.96875 0.96875l0 -1.8125q1.5625 -0.734375 2.734375 -1.78125q1.1875 -1.0625 1.671875 -2.046875l1.21875 0l0 15.328125zm5.0804443 -3.53125l1.796875 -0.171875q0.234375 1.28125 0.875 1.859375q0.640625 0.5625 1.65625 0.5625q0.859375 0 1.515625 -0.390625q0.65625 -0.40625 1.0625 -1.0625q0.421875 -0.65625 0.703125 -1.78125q0.28125 -1.125 0.28125 -2.296875q0 -0.125 -0.015625 -0.375q-0.5625 0.890625 -1.53125 1.453125q-0.96875 0.5625 -2.109375 0.5625q-1.890625 0 -3.203125 -1.375q-1.3125 -1.375 -1.3125 -3.625q0 -2.328125 1.359375 -3.734375q1.375 -1.421875 3.4375 -1.421875q1.484375 0 2.71875 0.8125q1.234375 0.796875 1.875 2.28125q0.640625 1.484375 0.640625 4.28125q0 2.9375 -0.640625 4.671875q-0.625 1.734375 -1.890625 2.640625q-1.25 0.90625 -2.9375 0.90625q-1.78125 0 -2.921875 -1.0q-1.140625 -1.0 -1.359375 -2.796875zm7.671875 -6.734375q0 -1.609375 -0.859375 -2.5625q-0.859375 -0.953125 -2.0625 -0.953125q-1.25 0 -2.1875 1.03125q-0.921875 1.015625 -0.921875 2.640625q0 1.453125 0.875 2.375q0.890625 0.90625 2.171875 0.90625q1.3125 0 2.140625 -0.90625q0.84375 -0.921875 0.84375 -2.53125z" fill-rule="nonzero"/><path fill="#000000" fill-opacity="0.0" d="m109.25197 66.84044l138.14174 0l0 42.015747l-138.14174 0z" fill-rule="evenodd"/><path fill="#000000" d="m119.68947 93.76044l0 -13.359375l5.046875 0q1.328125 0 2.03125 0.125q0.96875 0.171875 1.640625 0.640625q0.671875 0.453125 1.078125 1.28125q0.40625 0.828125 0.40625 1.828125q0 1.703125 -1.09375 2.890625q-1.078125 1.171875 -3.921875 1.171875l-3.421875 0l0 5.421875l-1.765625 0zm1.765625 -7.0l3.453125 0q1.71875 0 2.4375 -0.640625q0.71875 -0.640625 0.71875 -1.796875q0 -0.84375 -0.421875 -1.4375q-0.421875 -0.59375 -1.125 -0.78125q-0.4375 -0.125 -1.640625 -0.125l-3.421875 0l0 4.78125zm10.599823 7.0l0 -13.359375l1.78125 0l0 11.78125l6.5625 0l0 1.578125l-8.34375 0zm8.985092 0l5.125 -13.359375l1.90625 0l5.46875 13.359375l-2.015625 0l-1.546875 -4.046875l-5.59375 0l-1.46875 4.046875l-1.875 0zm3.859375 -5.484375l4.53125 0l-1.40625 -3.703125q-0.625 -1.6875 -0.9375 -2.765625q-0.265625 1.28125 -0.71875 2.546875l-1.46875 3.921875zm12.073776 5.484375l0 -11.78125l-4.40625 0l0 -1.578125l10.578125 0l0 1.578125l-4.40625 0l0 11.78125l-1.765625 0zm8.083481 0l0 -13.359375l9.015625 0l0 1.578125l-7.25 0l0 4.140625l6.265625 0l0 1.578125l-6.265625 0l0 6.0625l-1.765625 0zm10.770981 -6.5q0 -3.328125 1.78125 -5.203125q1.78125 -1.890625 4.609375 -1.890625q1.84375 0 3.328125 0.890625q1.484375 0.875 2.265625 2.46875q0.78125 1.578125 0.78125 3.578125q0 2.03125 -0.828125 3.640625q-0.8125 1.59375 -2.3125 2.421875q-1.5 0.828125 -3.25 0.828125q-1.875 0 -3.359375 -0.90625q-1.484375 -0.921875 -2.25 -2.5q-0.765625 -1.578125 -0.765625 -3.328125zm1.8125 0.015625q0 2.421875 1.296875 3.8125q1.296875 1.390625 3.265625 1.390625q2.0 0 3.28125 -1.40625q1.28125 -1.40625 1.28125 -3.984375q0 -1.625 -0.546875 -2.84375q-0.546875 -1.21875 -1.609375 -1.875q-1.0625 -0.671875 -2.375 -0.671875q-1.890625 0 -3.25 1.296875q-1.34375 1.28125 -1.34375 4.28125zm13.261429 6.484375l0 -13.359375l5.921875 0q1.78125 0 2.703125 0.359375q0.9375 0.359375 1.484375 1.28125q0.5625 0.90625 0.5625 2.015625q0 1.40625 -0.921875 2.390625q-0.921875 0.96875 -2.84375 1.234375q0.703125 0.34375 1.078125 0.671875q0.765625 0.703125 1.453125 1.765625l2.328125 3.640625l-2.21875 0l-1.765625 -2.78125q-0.78125 -1.203125 -1.28125 -1.828125q-0.5 -0.640625 -0.90625 -0.890625q-0.390625 -0.265625 -0.796875 -0.359375q-0.296875 -0.078125 -0.984375 -0.078125l-2.046875 0l0 5.9375l-1.765625 0zm1.765625 -7.453125l3.796875 0q1.21875 0 1.890625 -0.25q0.6875 -0.265625 1.046875 -0.8125q0.359375 -0.546875 0.359375 -1.1875q0 -0.953125 -0.6875 -1.5625q-0.6875 -0.609375 -2.1875 -0.609375l-4.21875 0l0 4.421875zm11.629196 7.453125l0 -13.359375l2.65625 0l3.15625 9.453125q0.4375 1.328125 0.640625 1.984375q0.234375 -0.734375 0.703125 -2.140625l3.203125 -9.296875l2.375 0l0 13.359375l-1.703125 0l0 -11.171875l-3.875 11.171875l-1.59375 0l-3.859375 -11.375l0 11.375l-1.703125 0zm26.286606 0l-1.640625 0l0 -10.453125q-0.59375 0.5625 -1.5625 1.140625q-0.953125 0.5625 -1.71875 0.84375l0 -1.59375q1.375 -0.640625 2.40625 -1.5625q1.03125 -0.921875 1.453125 -1.78125l1.0625 0l0 13.40625z" fill-rule="nonzero"/><path fill="#000000" fill-opacity="0.0" d="m109.25197 114.6485l138.14174 0l0 42.015747l-138.14174 0z" fill-rule="evenodd"/><path fill="#000000" d="m119.68947 141.5685l0 -13.359375l5.046875 0q1.328125 0 2.03125 0.125q0.96875 0.171875 1.640625 0.640625q0.671875 0.453125 1.078125 1.28125q0.40625 0.828125 0.40625 1.828125q0 1.703125 -1.09375 2.890625q-1.078125 1.171875 -3.921875 1.171875l-3.421875 0l0 5.421875l-1.765625 0zm1.765625 -7.0l3.453125 0q1.71875 0 2.4375 -0.640625q0.71875 -0.640625 0.71875 -1.796875q0 -0.84375 -0.421875 -1.4375q-0.421875 -0.59375 -1.125 -0.78125q-0.4375 -0.125 -1.640625 -0.125l-3.421875 0l0 4.78125zm10.599823 7.0l0 -13.359375l1.78125 0l0 11.78125l6.5625 0l0 1.578125l-8.34375 0zm8.985092 0l5.125 -13.359375l1.90625 0l5.46875 13.359375l-2.015625 0l-1.546875 -4.046875l-5.59375 0l-1.46875 4.046875l-1.875 0zm3.859375 -5.484375l4.53125 0l-1.40625 -3.703125q-0.625 -1.6875 -0.9375 -2.765625q-0.265625 1.28125 -0.71875 2.546875l-1.46875 3.921875zm12.073776 5.484375l0 -11.78125l-4.40625 0l0 -1.578125l10.578125 0l0 1.578125l-4.40625 0l0 11.78125l-1.765625 0zm8.083481 0l0 -13.359375l9.015625 0l0 1.578125l-7.25 0l0 4.140625l6.265625 0l0 1.578125l-6.265625 0l0 6.0625l-1.765625 0zm10.770981 -6.5q0 -3.328125 1.78125 -5.203125q1.78125 -1.890625 4.609375 -1.890625q1.84375 0 3.328125 0.890625q1.484375 0.875 2.265625 2.46875q0.78125 1.578125 0.78125 3.578125q0 2.03125 -0.828125 3.640625q-0.8125 1.59375 -2.3125 2.421875q-1.5 0.828125 -3.25 0.828125q-1.875 0 -3.359375 -0.90625q-1.484375 -0.921875 -2.25 -2.5q-0.765625 -1.578125 -0.765625 -3.328125zm1.8125 0.015625q0 2.421875 1.296875 3.8125q1.296875 1.390625 3.265625 1.390625q2.0 0 3.28125 -1.40625q1.28125 -1.40625 1.28125 -3.984375q0 -1.625 -0.546875 -2.84375q-0.546875 -1.21875 -1.609375 -1.875q-1.0625 -0.671875 -2.375 -0.671875q-1.890625 0 -3.25 1.296875q-1.34375 1.28125 -1.34375 4.28125zm13.261429 6.484375l0 -13.359375l5.921875 0q1.78125 0 2.703125 0.359375q0.9375 0.359375 1.484375 1.28125q0.5625 0.90625 0.5625 2.015625q0 1.40625 -0.921875 2.390625q-0.921875 0.96875 -2.84375 1.234375q0.703125 0.34375 1.078125 0.671875q0.765625 0.703125 1.453125 1.765625l2.328125 3.640625l-2.21875 0l-1.765625 -2.78125q-0.78125 -1.203125 -1.28125 -1.828125q-0.5 -0.640625 -0.90625 -0.890625q-0.390625 -0.265625 -0.796875 -0.359375q-0.296875 -0.078125 -0.984375 -0.078125l-2.046875 0l0 5.9375l-1.765625 0zm1.765625 -7.453125l3.796875 0q1.21875 0 1.890625 -0.25q0.6875 -0.265625 1.046875 -0.8125q0.359375 -0.546875 0.359375 -1.1875q0 -0.953125 -0.6875 -1.5625q-0.6875 -0.609375 -2.1875 -0.609375l-4.21875 0l0 4.421875zm11.629196 7.453125l0 -13.359375l2.65625 0l3.15625 9.453125q0.4375 1.328125 0.640625 1.984375q0.234375 -0.734375 0.703125 -2.140625l3.203125 -9.296875l2.375 0l0 13.359375l-1.703125 0l0 -11.171875l-3.875 11.171875l-1.59375 0l-3.859375 -11.375l0 11.375l-1.703125 0zm28.724106 -1.578125l0 1.578125l-8.828125 0q-0.015625 -0.59375 0.1875 -1.140625q0.34375 -0.90625 1.078125 -1.78125q0.75 -0.875 2.15625 -2.015625q2.171875 -1.78125 2.9375 -2.828125q0.765625 -1.046875 0.765625 -1.96875q0 -0.984375 -0.703125 -1.640625q-0.6875 -0.671875 -1.8125 -0.671875q-1.1875 0 -1.90625 0.71875q-0.703125 0.703125 -0.703125 1.953125l-1.6875 -0.171875q0.171875 -1.890625 1.296875 -2.875q1.140625 -0.984375 3.03125 -0.984375q1.921875 0 3.046875 1.0625q1.125 1.0625 1.125 2.640625q0 0.796875 -0.328125 1.578125q-0.328125 0.78125 -1.09375 1.640625q-0.75 0.84375 -2.53125 2.34375q-1.46875 1.234375 -1.890625 1.6875q-0.421875 0.4375 -0.6875 0.875l6.546875 0z" fill-rule="nonzero"/><path fill="#000000" fill-opacity="0.0" d="m201.06561 190.6798l71.68506 0l0 42.015747l-71.68506 0z" fill-rule="evenodd"/><path fill="#000000" d="m211.42499 217.5998l0 -13.359375l1.78125 0l0 11.78125l6.5625 0l0 1.578125l-8.34375 0zm9.922592 -6.5q0 -3.328125 1.78125 -5.203125q1.78125 -1.890625 4.609375 -1.890625q1.84375 0 3.328125 0.890625q1.484375 0.875 2.265625 2.46875q0.78125 1.578125 0.78125 3.578125q0 2.03125 -0.828125 3.640625q-0.8125 1.59375 -2.3125 2.421875q-1.5 0.828125 -3.25 0.828125q-1.875 0 -3.359375 -0.90625q-1.484375 -0.921875 -2.25 -2.5q-0.765625 -1.578125 -0.765625 -3.328125zm1.8125 0.015625q0 2.421875 1.296875 3.8125q1.296875 1.390625 3.265625 1.390625q2.0 0 3.28125 -1.40625q1.28125 -1.40625 1.28125 -3.984375q0 -1.625 -0.546875 -2.84375q-0.546875 -1.21875 -1.609375 -1.875q-1.0625 -0.671875 -2.375 -0.671875q-1.890625 0 -3.25 1.296875q-1.34375 1.28125 -1.34375 4.28125zm12.698929 -0.015625q0 -3.328125 1.78125 -5.203125q1.78125 -1.890625 4.609375 -1.890625q1.84375 0 3.328125 0.890625q1.484375 0.875 2.265625 2.46875q0.78125 1.578125 0.78125 3.578125q0 2.03125 -0.828125 3.640625q-0.8125 1.59375 -2.3125 2.421875q-1.5 0.828125 -3.25 0.828125q-1.875 0 -3.359375 -0.90625q-1.484375 -0.921875 -2.25 -2.5q-0.765625 -1.578125 -0.765625 -3.328125zm1.8125 0.015625q0 2.421875 1.296875 3.8125q1.296875 1.390625 3.265625 1.390625q2.0 0 3.28125 -1.40625q1.28125 -1.40625 1.28125 -3.984375q0 -1.625 -0.546875 -2.84375q-0.546875 -1.21875 -1.609375 -1.875q-1.0625 -0.671875 -2.375 -0.671875q-1.890625 0 -3.25 1.296875q-1.34375 1.28125 -1.34375 4.28125zm13.230179 6.484375l0 -13.359375l5.046875 0q1.3281403 0 2.0312653 0.125q0.96875 0.171875 1.640625 0.640625q0.671875 0.453125 1.078125 1.28125q0.40625 0.828125 0.40625 1.828125q0 1.703125 -1.09375 2.890625q-1.078125 1.171875 -3.921875 1.171875l-3.4218903 0l0 5.421875l-1.765625 0zm1.765625 -7.0l3.4531403 0q1.71875 0 2.4375 -0.640625q0.71875 -0.640625 0.71875 -1.796875q0 -0.84375 -0.421875 -1.4375q-0.421875 -0.59375 -1.125 -0.78125q-0.4375 -0.125 -1.640625 -0.125l-3.4218903 0l0 4.78125z" fill-rule="nonzero"/><path fill="#000000" fill-opacity="0.0" d="m140.6063 277.9533l138.14172 0l0 42.015747l-138.14172 0z" fill-rule="evenodd"/><path fill="#000000" d="m157.2938 299.63892l0 -1.578125l5.65625 0l0 4.953125q-1.296875 1.046875 -2.6875 1.578125q-1.375 0.515625 -2.84375 0.515625q-1.96875 0 -3.578125 -0.84375q-1.609375 -0.84375 -2.421875 -2.4375q-0.8125 -1.59375 -0.8125 -3.5625q0 -1.953125 0.8125 -3.640625q0.8125 -1.6875 2.34375 -2.5q1.53125 -0.828125 3.515625 -0.828125q1.453125 0 2.625 0.46875q1.171875 0.46875 1.828125 1.3125q0.671875 0.828125 1.015625 2.171875l-1.59375 0.4375q-0.296875 -1.015625 -0.75 -1.59375q-0.4375 -0.59375 -1.265625 -0.9375q-0.828125 -0.34375 -1.84375 -0.34375q-1.203125 0 -2.09375 0.375q-0.890625 0.359375 -1.4375 0.96875q-0.53125 0.59375 -0.828125 1.3125q-0.515625 1.234375 -0.515625 2.6875q0 1.78125 0.609375 2.984375q0.625 1.203125 1.796875 1.796875q1.171875 0.578125 2.5 0.578125q1.140625 0 2.234375 -0.4375q1.09375 -0.453125 1.65625 -0.953125l0 -2.484375l-3.921875 0zm7.730179 -1.265625q0 -3.328125 1.78125 -5.203125q1.78125 -1.890625 4.609375 -1.890625q1.84375 0 3.328125 0.890625q1.484375 0.875 2.265625 2.46875q0.78125 1.578125 0.78125 3.578125q0 2.03125 -0.828125 3.640625q-0.8125 1.59375 -2.3125 2.421875q-1.5 0.828125 -3.25 0.828125q-1.875 0 -3.359375 -0.90625q-1.484375 -0.921875 -2.25 -2.5q-0.765625 -1.578125 -0.765625 -3.328125zm1.8125 0.015625q0 2.421875 1.296875 3.8125q1.296875 1.390625 3.265625 1.390625q2.0 0 3.28125 -1.40625q1.28125 -1.40625 1.28125 -3.984375q0 -1.625 -0.546875 -2.84375q-0.546875 -1.21875 -1.609375 -1.875q-1.0625 -0.671875 -2.375 -0.671875q-1.890625 0 -3.25 1.296875q-1.34375 1.28125 -1.34375 4.28125zm12.698929 -0.015625q0 -3.328125 1.78125 -5.203125q1.78125 -1.890625 4.609375 -1.890625q1.84375 0 3.328125 0.890625q1.484375 0.875 2.265625 2.46875q0.78125 1.578125 0.78125 3.578125q0 2.03125 -0.828125 3.640625q-0.8125 1.59375 -2.3125 2.421875q-1.5 0.828125 -3.25 0.828125q-1.875 0 -3.359375 -0.90625q-1.484375 -0.921875 -2.25 -2.5q-0.765625 -1.578125 -0.765625 -3.328125zm1.8125 0.015625q0 2.421875 1.296875 3.8125q1.296875 1.390625 3.265625 1.390625q2.0 0 3.28125 -1.40625q1.28125 -1.40625 1.28125 -3.984375q0 -1.625 -0.546875 -2.84375q-0.546875 -1.21875 -1.609375 -1.875q-1.0625 -0.671875 -2.375 -0.671875q-1.890625 0 -3.25 1.296875q-1.34375 1.28125 -1.34375 4.28125zm13.230179 6.484375l0 -13.359375l4.609375 0q1.546875 0 2.375 0.203125q1.140625 0.25 1.953125 0.953125q1.0625 0.890625 1.578125 2.28125q0.53125 1.390625 0.53125 3.171875q0 1.515625 -0.359375 2.703125q-0.359375 1.171875 -0.921875 1.9375q-0.546875 0.765625 -1.203125 1.21875q-0.65625 0.4375 -1.59375 0.671875q-0.9375 0.21875 -2.140625 0.21875l-4.828125 0zm1.765625 -1.578125l2.859375 0q1.3125 0 2.0625 -0.234375q0.75 -0.25 1.203125 -0.703125q0.625 -0.625 0.96875 -1.6875q0.359375 -1.0625 0.359375 -2.578125q0 -2.09375 -0.6875 -3.21875q-0.6875 -1.125 -1.671875 -1.5q-0.703125 -0.28125 -2.28125 -0.28125l-2.8125 0l0 10.203125zm11.113571 -2.71875l1.65625 -0.140625q0.125 1.0 0.546875 1.640625q0.4375 0.640625 1.34375 1.046875q0.921875 0.390625 2.0625 0.390625q1.0 0 1.78125 -0.296875q0.78125 -0.296875 1.15625 -0.8125q0.375 -0.53125 0.375 -1.15625q0 -0.625 -0.375 -1.09375q-0.359375 -0.46875 -1.1875 -0.796875q-0.546875 -0.203125 -2.390625 -0.640625q-1.828125 -0.453125 -2.5625 -0.84375q-0.96875 -0.5 -1.4375 -1.234375q-0.46875 -0.75 -0.46875 -1.671875q0 -1.0 0.578125 -1.875q0.578125 -0.890625 1.671875 -1.34375q1.109375 -0.453125 2.453125 -0.453125q1.484375 0 2.609375 0.484375q1.140625 0.46875 1.75 1.40625q0.609375 0.921875 0.65625 2.09375l-1.6875 0.125q-0.140625 -1.265625 -0.9375 -1.90625q-0.78125 -0.65625 -2.3125 -0.65625q-1.609375 0 -2.34375 0.59375q-0.734375 0.59375 -0.734375 1.421875q0 0.71875 0.53125 1.171875q0.5 0.46875 2.65625 0.96875q2.15625 0.484375 2.953125 0.84375q1.171875 0.53125 1.71875 1.359375q0.5625 0.828125 0.5625 1.90625q0 1.0625 -0.609375 2.015625q-0.609375 0.9375 -1.75 1.46875q-1.140625 0.515625 -2.578125 0.515625q-1.8125 0 -3.046875 -0.53125q-1.21875 -0.53125 -1.921875 -1.59375q-0.6875 -1.0625 -0.71875 -2.40625z" fill-rule="nonzero"/><path fill="#000000" fill-opacity="0.0" d="m764.2378 78.8871l122.70862 -63.464565l19.307129 37.322834l-122.70868 63.46457z" fill-rule="evenodd"/><path fill="#000000" d="m785.96075 97.95938l-6.1381836 -11.865753l8.007996 -4.1417007l0.72509766 1.40168l-6.4396973 3.330597l1.9024658 3.6776886l5.5653687 -2.8783798l0.7250366 1.4016876l-5.5653076 2.8783722l2.7855225 5.384697l-1.5682983 0.81111145zm4.4345093 -15.346123l-0.86865234 -1.679245l1.5682983 -0.81111145l0.689209 1.3322906q0.5599365 1.082489 0.5541992 1.683548q-0.002380371 0.8455963 -0.57281494 1.545227l-0.65515137 -0.38237q0.33691406 -0.4029312 0.35125732 -0.88531494q0.020996094 -0.5034332 -0.30297852 -1.197815l-0.7633667 0.39479065zm12.311584 6.685066l-5.413025 -10.464066l-3.9137573 2.0242004l-0.72509766 -1.4016876l9.395813 -4.8595047l0.72509766 1.4016876l-3.9137573 2.0241928l5.413025 10.464066l-1.5682983 0.81111145zm3.3388672 -9.044716q-1.5291748 -2.9560318 -0.8085327 -5.4396896q0.713501 -2.4975433 3.225586 -3.7967606q1.6376343 -0.8470001 3.3653564 -0.73786163q1.720459 0.09526062 3.1466675 1.1519241q1.4190674 1.0427856 2.3379517 2.8191833q0.9332886 1.8041458 0.9371948 3.6140213q0.010559082 1.7888184 -0.9412842 3.2134476q-0.95184326 1.4246216 -2.5062866 2.2285614q-1.6654053 0.86135864 -3.4002686 0.7383423q-1.7420654 -0.13690186 -3.1472168 -1.1868668q-1.4051514 -1.0499573 -2.2091675 -2.6043015zm1.6170654 -0.81877136q1.112793 2.1511002 2.9036255 2.790474q1.7908936 0.6393738 3.5396118 -0.2650528q1.7764282 -0.9187851 2.2683716 -2.7564087q0.49194336 -1.837616 -0.69262695 -4.1275024q-0.74658203 -1.4433212 -1.7923584 -2.2745743q-1.0457153 -0.8312607 -2.2909546 -0.92604065q-1.2524414 -0.10865021 -2.418274 0.49430084q-1.6793213 0.8685379 -2.2908936 2.644905q-0.6048584 1.75531 0.77349854 4.419899zm14.71698 -0.3112564l-6.1381836 -11.865753l1.6099243 -0.83264923l11.048706 6.089264l-4.8171997 -9.312183l1.4989014 -0.7752266l6.1381836 11.865753l-1.6099243 0.83264923l-11.055908 -6.103142l4.824402 9.326057l-1.4989014 0.7752304z" fill-rule="nonzero"/><path fill="#000000" fill-opacity="0.0" d="m832.0681 171.05249l78.5827 0l0 42.015747l-78.5827 0z" fill-rule="evenodd"/><path fill="#000000" d="m848.7556 192.73811l0 -1.578125l5.65625 0l0 4.953125q-1.296875 1.046875 -2.6875 1.578125q-1.375 0.515625 -2.84375 0.515625q-1.96875 0 -3.578125 -0.84375q-1.609375 -0.84375 -2.421875 -2.4375q-0.8125 -1.59375 -0.8125 -3.5625q0 -1.953125 0.8125 -3.640625q0.8125 -1.6875 2.34375 -2.5q1.53125 -0.828125 3.515625 -0.828125q1.453125 0 2.625 0.46875q1.171875 0.46875 1.828125 1.3125q0.671875 0.828125 1.015625 2.171875l-1.59375 0.4375q-0.296875 -1.015625 -0.75 -1.59375q-0.4375 -0.59375 -1.265625 -0.9375q-0.828125 -0.34375 -1.84375 -0.34375q-1.203125 0 -2.09375 0.375q-0.890625 0.359375 -1.4375 0.96875q-0.53125 0.59375 -0.828125 1.3125q-0.515625 1.234375 -0.515625 2.6875q0 1.78125 0.609375 2.984375q0.625 1.203125 1.796875 1.796875q1.171875 0.578125 2.5 0.578125q1.140625 0 2.234375 -0.4375q1.09375 -0.453125 1.65625 -0.953125l0 -2.484375l-3.921875 0zm7.9489136 -6.359375l0 -1.890625l1.765625 0l0 1.5q0 1.21875 -0.28125 1.75q-0.390625 0.75 -1.21875 1.109375l-0.40625 -0.640625q0.484375 -0.203125 0.71875 -0.625q0.25 -0.4375 0.28125 -1.203125l-0.859375 0zm4.3792114 11.59375l0 -13.359375l5.015625 0q1.53125 0 2.453125 0.40625q0.921875 0.40625 1.4375 1.25q0.53125 0.84375 0.53125 1.765625q0 0.859375 -0.46875 1.625q-0.453125 0.75 -1.390625 1.203125q1.203125 0.359375 1.859375 1.21875q0.65625 0.859375 0.65625 2.015625q0 0.9375 -0.40625 1.75q-0.390625 0.796875 -0.984375 1.234375q-0.578125 0.4375 -1.453125 0.671875q-0.875 0.21875 -2.15625 0.21875l-5.09375 0zm1.78125 -7.75l2.875 0q1.1875 0 1.6875 -0.140625q0.671875 -0.203125 1.015625 -0.671875q0.34375 -0.46875 0.34375 -1.171875q0 -0.65625 -0.328125 -1.15625q-0.3125 -0.515625 -0.90625 -0.703125q-0.59375 -0.1875 -2.03125 -0.1875l-2.65625 0l0 4.03125zm0 6.171875l3.3125 0q0.859375 0 1.203125 -0.0625q0.609375 -0.109375 1.015625 -0.359375q0.421875 -0.265625 0.6875 -0.75q0.265625 -0.484375 0.265625 -1.125q0 -0.75 -0.390625 -1.296875q-0.375 -0.546875 -1.0625 -0.765625q-0.671875 -0.234375 -1.953125 -0.234375l-3.078125 0l0 4.59375zm10.7404785 1.578125l0 -13.359375l4.609375 0q1.546875 0 2.375 0.203125q1.140625 0.25 1.953125 0.953125q1.0625 0.890625 1.578125 2.28125q0.53125 1.390625 0.53125 3.171875q0 1.515625 -0.359375 2.703125q-0.359375 1.171875 -0.921875 1.9375q-0.546875 0.765625 -1.203125 1.21875q-0.65625 0.4375 -1.59375 0.671875q-0.9375 0.21875 -2.140625 0.21875l-4.828125 0zm1.765625 -1.578125l2.859375 0q1.3125 0 2.0625 -0.234375q0.75 -0.25 1.203125 -0.703125q0.625 -0.625 0.96875 -1.6875q0.359375 -1.0625 0.359375 -2.578125q0 -2.09375 -0.6875 -3.21875q-0.6875 -1.125 -1.671875 -1.5q-0.703125 -0.28125 -2.28125 -0.28125l-2.8125 0l0 10.203125zm17.957275 -3.65625l0 -1.578125l5.65625 0l0 4.953125q-1.296875 1.046875 -2.6875 1.578125q-1.375 0.515625 -2.84375 0.515625q-1.96875 0 -3.578125 -0.84375q-1.609375 -0.84375 -2.421875 -2.4375q-0.8125 -1.59375 -0.8125 -3.5625q0 -1.953125 0.8125 -3.640625q0.8125 -1.6875 2.34375 -2.5q1.53125 -0.828125 3.515625 -0.828125q1.453125 0 2.625 0.46875q1.171875 0.46875 1.828125 1.3125q0.671875 0.828125 1.015625 2.171875l-1.59375 0.4375q-0.296875 -1.015625 -0.75 -1.59375q-0.4375 -0.59375 -1.265625 -0.9375q-0.828125 -0.34375 -1.84375 -0.34375q-1.203125 0 -2.09375 0.375q-0.890625 0.359375 -1.4375 0.96875q-0.53125 0.59375 -0.828125 1.3125q-0.515625 1.234375 -0.515625 2.6875q0 1.78125 0.609375 2.984375q0.625 1.203125 1.796875 1.796875q1.171875 0.578125 2.5 0.578125q1.140625 0 2.234375 -0.4375q1.09375 -0.453125 1.65625 -0.953125l0 -2.484375l-3.921875 0z" fill-rule="nonzero"/><path fill="#ff0000" d="m843.57745 51.63517c0 -10.950024 8.876709 -19.82677 19.826721 -19.82677c5.258423 0 10.301453 2.0888863 14.019653 5.807125c3.7182617 3.7182426 5.807129 8.761261 5.807129 14.019646c0 10.950024 -8.876709 19.826775 -19.826782 19.826775c-10.950012 0 -19.826721 -8.876751 -19.826721 -19.826775z" fill-rule="evenodd"/><path fill="#ffffff" d="m858.36395 55.11517l1.96875 -0.171875q0.21875 1.4375 1.015625 2.171875q0.796875 0.71875 1.921875 0.71875q1.34375 0 2.28125 -1.015625q0.9375 -1.03125 0.9375 -2.71875q0 -1.59375 -0.90625 -2.515625q-0.890625 -0.9375 -2.34375 -0.9375q-0.90625 0 -1.640625 0.421875q-0.734375 0.40625 -1.140625 1.0625l-1.765625 -0.234375l1.484375 -7.84375l7.59375 0l0 1.796875l-6.09375 0l-0.828125 4.09375q1.375 -0.953125 2.890625 -0.953125q2.0 0 3.359375 1.390625q1.375 1.375 1.375 3.5625q0 2.0625 -1.203125 3.578125q-1.46875 1.859375 -4.0 1.859375q-2.09375 0 -3.40625 -1.171875q-1.3125 -1.171875 -1.5 -3.09375z" fill-rule="nonzero"/><path fill="#ff0000" d="m858.98425 142.13387c0 -10.950027 8.87677 -19.826782 19.826782 -19.826782c5.258362 0 10.301392 2.08889 14.019653 5.807129c3.7182007 3.7182465 5.807129 8.761261 5.807129 14.019653c0 10.950012 -8.87677 19.826767 -19.826782 19.826767c-10.950012 0 -19.826782 -8.876755 -19.826782 -19.826767z" fill-rule="evenodd"/><path fill="#ffffff" d="m883.48956 138.08261l-1.859375 0.15625q-0.25 -1.109375 -0.703125 -1.609375q-0.765625 -0.796875 -1.875 -0.796875q-0.90625 0 -1.578125 0.5q-0.890625 0.640625 -1.40625 1.875q-0.5 1.234375 -0.515625 3.53125q0.671875 -1.03125 1.640625 -1.53125q0.984375 -0.5 2.0625 -0.5q1.875 0 3.1875 1.390625q1.3125 1.375 1.3125 3.5625q0 1.4375 -0.625 2.671875q-0.609375 1.234375 -1.6875 1.890625q-1.078125 0.65625 -2.453125 0.65625q-2.34375 0 -3.828125 -1.71875q-1.484375 -1.734375 -1.484375 -5.6875q0 -4.421875 1.640625 -6.4375q1.421875 -1.75 3.84375 -1.75q1.796875 0 2.953125 1.015625q1.15625 1.0 1.375 2.78125zm-7.65625 6.578125q0 0.96875 0.40625 1.859375q0.421875 0.890625 1.15625 1.359375q0.75 0.453125 1.5625 0.453125q1.1875 0 2.03125 -0.953125q0.859375 -0.96875 0.859375 -2.609375q0 -1.578125 -0.84375 -2.484375q-0.84375 -0.921875 -2.125 -0.921875q-1.265625 0 -2.15625 0.921875q-0.890625 0.90625 -0.890625 2.375z" fill-rule="nonzero"/><g filter="url(#shadowFilter-p.2)"><use xlink:href="#p.2" transform="matrix(1.0 0.0 0.0 1.0 3.535533858267691 3.5355338582677103)"/></g><defs><filter id="shadowFilter-p.2" filterUnits="userSpaceOnUse"><feGaussianBlur in="SourceAlpha" stdDeviation="0.0" result="blur"/><feComponentTransfer in="blur" color-interpolation-filters="sRGB"><feFuncR type="linear" slope="0" intercept="0.0"/><feFuncG type="linear" slope="0" intercept="0.0"/><feFuncB type="linear" slope="0" intercept="0.0"/><feFuncA type="linear" slope="0.5" intercept="0"/></feComponentTransfer></filter></defs><g id="p.2"><path fill="#ea9999" d="m535.69293 70.40682l71.685 0l0 42.015747l-71.685 0z" fill-rule="evenodd"/><path fill="#000000" d="m559.9356 94.03782l1.65625 -0.140625q0.125 1.0 0.546875 1.640625q0.4375 0.640625 1.34375 1.046875q0.921875 0.390625 2.0625 0.390625q1.0 0 1.78125 -0.296875q0.78125 -0.296875 1.15625 -0.8125q0.375 -0.53125 0.375 -1.15625q0 -0.625 -0.375 -1.09375q-0.359375 -0.46875 -1.1875 -0.796875q-0.546875 -0.203125 -2.390625 -0.640625q-1.828125 -0.453125 -2.5625 -0.84375q-0.96875 -0.5 -1.4375 -1.234375q-0.46875 -0.75 -0.46875 -1.671875q0 -1.0 0.578125 -1.875q0.578125 -0.890625 1.671875 -1.34375q1.109375 -0.453125 2.453125 -0.453125q1.484375 0 2.609375 0.484375q1.140625 0.46875 1.75 1.40625q0.609375 0.921875 0.65625 2.09375l-1.6875 0.125q-0.140625 -1.265625 -0.9375 -1.90625q-0.78125 -0.65625 -2.3125 -0.65625q-1.609375 0 -2.34375 0.59375q-0.734375 0.59375 -0.734375 1.421875q0 0.71875 0.53125 1.171875q0.5 0.46875 2.65625 0.96875q2.15625 0.484375 2.953125 0.84375q1.171875 0.53125 1.71875 1.359375q0.5625 0.828125 0.5625 1.90625q0 1.0625 -0.609375 2.015625q-0.609375 0.9375 -1.75 1.46875q-1.140625 0.515625 -2.578125 0.515625q-1.8125 0 -3.046875 -0.53125q-1.21875 -0.53125 -1.921875 -1.59375q-0.6875 -1.0625 -0.71875 -2.40625zm12.9592285 4.296875l0 -13.359375l5.015625 0q1.53125 0 2.453125 0.40625q0.921875 0.40625 1.4375 1.25q0.53125 0.84375 0.53125 1.765625q0 0.859375 -0.46875 1.625q-0.453125 0.75 -1.390625 1.203125q1.203125 0.359375 1.859375 1.21875q0.65625 0.859375 0.65625 2.015625q0 0.9375 -0.40625 1.75q-0.390625 0.796875 -0.984375 1.234375q-0.578125 0.4375 -1.453125 0.671875q-0.875 0.21875 -2.15625 0.21875l-5.09375 0zm1.78125 -7.75l2.875 0q1.1875 0 1.6875 -0.140625q0.671875 -0.203125 1.015625 -0.671875q0.34375 -0.46875 0.34375 -1.171875q0 -0.65625 -0.328125 -1.15625q-0.3125 -0.515625 -0.90625 -0.703125q-0.59375 -0.1875 -2.03125 -0.1875l-2.65625 0l0 4.03125zm0 6.171875l3.3125 0q0.859375 0 1.203125 -0.0625q0.609375 -0.109375 1.015625 -0.359375q0.421875 -0.265625 0.6875 -0.75q0.265625 -0.484375 0.265625 -1.125q0 -0.75 -0.390625 -1.296875q-0.375 -0.546875 -1.0625 -0.765625q-0.671875 -0.234375 -1.953125 -0.234375l-3.078125 0l0 4.59375z" fill-rule="nonzero"/></g></g></svg>